<svg
  fill="white"
  aria-hidden="true"
  role="img"
  xmlns="http://www.w3.org/2000/svg"
  data-testid="icon-home"
  height="18"
  viewBox="0 0 26 26"
>
  <path
    fill-rule="evenodd"
    clip-rule="evenodd"
    d="M23.325 7.07659C23.702 7.34048 24.0527 7.58593 24.3306 7.82251C24.6384 8.08448 24.9277 8.39244 25.1353 8.81235C25.3429 9.23226 25.412 9.64911 25.4334 10.0527C25.4527 10.4171 25.4348 10.8447 25.4156 11.3046L24.9711 21.9721C24.95 22.4814 24.9294 22.9785 24.8578 23.3879C24.7769 23.8507 24.6055 24.3737 24.1567 24.8042C23.708 25.2347 23.1782 25.3842 22.7125 25.4457C22.3004 25.5002 21.8029 25.5001 21.2933 25.5L4.70703 25.5C4.19736 25.5001 3.69986 25.5002 3.28778 25.4458C2.82208 25.3842 2.29232 25.2347 1.84356 24.8042C1.3948 24.3738 1.22336 23.8507 1.14245 23.388C1.07087 22.9785 1.05025 22.4814 1.02914 21.9722L0.58466 11.3046C0.565456 10.8447 0.547601 10.4172 0.566899 10.0527C0.588267 9.64911 0.657357 9.23226 0.86499 8.81235C1.07262 8.39244 1.36193 8.08448 1.66966 7.8225C1.94756 7.58592 2.29815 7.34055 2.67524 7.07664L10.1816 1.82218C10.6594 1.48764 11.0988 1.17998 11.4949 0.964108C11.9321 0.725809 12.4202 0.538757 13.0001 0.538757C13.5801 0.538757 14.0682 0.72581 14.5054 0.964109C14.9014 1.17998 15.3409 1.48764 15.8187 1.82218L23.325 7.07659ZM9.61612 13.3661C9.25 13.7322 9.25 14.3215 9.25 15.5V23H16.75V15.5C16.75 14.3215 16.75 13.7322 16.3839 13.3661C16.0178 13 15.4285 13 14.25 13H11.75C10.5715 13 9.98223 13 9.61612 13.3661Z"
  ></path>
</svg>