<svg
  fill="white"
  aria-hidden="true"
  role="img"
  xmlns="http://www.w3.org/2000/svg"
  data-testid="icon-series"
  height="17.25"
  viewBox="0 0 26 26"
>
  <path
    fill-rule="evenodd"
    clip-rule="evenodd"
    d="M7.63687 0.463052C7.89486 0.233728 8.2899 0.256966 8.51922 0.514955L12.7282 5.25001H13.2722L17.4812 0.514955C17.7105 0.256966 18.1055 0.233728 18.3635 0.463052L19.2978 1.29351C19.5558 1.52283 19.579 1.91788 19.3497 2.17586L16.6171 5.25001L20.577 5.25001C21.3947 5.24993 22.1293 5.24986 22.724 5.32981C23.3732 5.41709 24.0392 5.61976 24.5847 6.1653C25.1303 6.71085 25.3329 7.37687 25.4202 8.02607C25.5002 8.62071 25.5001 9.35536 25.5 10.173V20.327C25.5001 21.1447 25.5002 21.8793 25.4202 22.474C25.3329 23.1232 25.1303 23.7892 24.5847 24.3347C24.0392 24.8803 23.3732 25.0829 22.724 25.1702C22.1293 25.2502 21.3947 25.2501 20.577 25.25H5.423C4.60534 25.2501 3.8707 25.2502 3.27607 25.1702C2.62687 25.0829 1.96085 24.8803 1.4153 24.3347C0.869752 23.7892 0.667086 23.1232 0.579803 22.474C0.499857 21.8793 0.499927 21.1447 0.500005 20.327V10.173C0.499927 9.35535 0.499857 8.6207 0.579803 8.02607C0.667086 7.37687 0.869752 6.71085 1.4153 6.1653C1.96085 5.61976 2.62687 5.41709 3.27607 5.32981C3.8707 5.24986 4.60534 5.24993 5.423 5.25001L9.38328 5.25001L6.6507 2.17586C6.42138 1.91788 6.44461 1.52283 6.7026 1.29351L7.63687 0.463052ZM17.6875 11.9688C17.6875 10.8469 18.5969 9.93752 19.7188 9.93752C20.8406 9.93752 21.75 10.8469 21.75 11.9688C21.75 13.0906 20.8406 14 19.7188 14C18.5969 14 17.6875 13.0906 17.6875 11.9688ZM17.6875 18.8438C17.6875 17.7219 18.5969 16.8125 19.7188 16.8125C20.8406 16.8125 21.75 17.7219 21.75 18.8438C21.75 19.9656 20.8406 20.875 19.7188 20.875C18.5969 20.875 17.6875 19.9656 17.6875 18.8438Z"
  ></path>
</svg>