<svg
  fill="white"
  aria-hidden="true"
  role="img"
  xmlns="http://www.w3.org/2000/svg"
  data-testid="icon-movies"
  height="15"
  viewBox="0 0 26 24"
>
  <path
    fill-rule="evenodd"
    clip-rule="evenodd"
    d="M20.5 0.750015C21.3485 0.750015 22.1109 0.746922 22.7241 0.829361C23.3733 0.916649 24.039 1.12007 24.5845 1.66554L24.7737 1.8755C25.179 2.37725 25.3443 2.95796 25.4207 3.52589C25.5031 4.13912 25.5 4.90149 25.5 5.75001V18.25C25.5 19.0985 25.5031 19.8609 25.4207 20.4741C25.3443 21.0421 25.179 21.6228 24.7737 22.1245L24.5845 22.3345C24.039 22.88 23.3733 23.0834 22.7241 23.1707C22.1109 23.2531 21.3485 23.25 20.5 23.25H5.50001C4.65149 23.25 3.88912 23.2531 3.27589 23.1707C2.70796 23.0943 2.12725 22.929 1.6255 22.5237L1.41554 22.3345C0.870071 21.789 0.666649 21.1233 0.579361 20.4741C0.496922 19.8609 0.500015 19.0985 0.500015 18.25V5.75001C0.500015 4.90149 0.496915 4.13912 0.579361 3.52589C0.666656 2.87675 0.870041 2.21104 1.41554 1.66554L1.6255 1.47633C2.12725 1.071 2.70796 0.905735 3.27589 0.829361C3.88912 0.746915 4.65149 0.750015 5.50001 0.750015H20.5ZM4.25002 18.25C3.66077 18.25 3.36618 18.2501 3.18312 18.4331C3.00006 18.6162 3.00002 18.9108 3.00002 19.5C3.00002 20.0893 3.00008 20.3839 3.18312 20.5669C3.36618 20.75 3.66077 20.75 4.25002 20.75C4.83927 20.75 5.13385 20.75 5.31691 20.5669C5.49997 20.3839 5.50001 20.0893 5.50001 19.5C5.50001 18.9108 5.49997 18.6162 5.31691 18.4331C5.13385 18.2501 4.83925 18.25 4.25002 18.25ZM9.25002 13.25C8.66077 13.25 8.36618 13.2501 8.18312 13.4331C8.00006 13.6162 8.00001 13.9108 8.00001 14.5V19.5C8.00001 20.0893 8.00008 20.3839 8.18312 20.5669C8.36618 20.75 8.66077 20.75 9.25002 20.75H16.75C17.3393 20.75 17.6339 20.75 17.8169 20.5669C18 20.3839 18 20.0893 18 19.5V14.5C18 13.9108 18 13.6162 17.8169 13.4331C17.6339 13.2501 17.3393 13.25 16.75 13.25H9.25002ZM21.75 18.25C21.1608 18.25 20.8662 18.2501 20.6831 18.4331C20.5001 18.6162 20.5 18.9108 20.5 19.5C20.5 20.0893 20.5001 20.3839 20.6831 20.5669C20.8662 20.75 21.1608 20.75 21.75 20.75C22.3393 20.75 22.6339 20.75 22.8169 20.5669C23 20.3839 23 20.0893 23 19.5C23 18.9108 23 18.6162 22.8169 18.4331C22.6339 18.2501 22.3393 18.25 21.75 18.25ZM4.25002 13.25C3.66077 13.25 3.36618 13.2501 3.18312 13.4331C3.00006 13.6162 3.00002 13.9108 3.00002 14.5C3.00002 15.0893 3.00008 15.3839 3.18312 15.5669C3.36618 15.75 3.66077 15.75 4.25002 15.75C4.83927 15.75 5.13385 15.75 5.31691 15.5669C5.49997 15.3839 5.50001 15.0893 5.50001 14.5C5.50001 13.9108 5.49997 13.6162 5.31691 13.4331C5.13385 13.2501 4.83925 13.25 4.25002 13.25ZM21.75 13.25C21.1608 13.25 20.8662 13.2501 20.6831 13.4331C20.5001 13.6162 20.5 13.9108 20.5 14.5C20.5 15.0893 20.5001 15.3839 20.6831 15.5669C20.8662 15.75 21.1608 15.75 21.75 15.75C22.3393 15.75 22.6339 15.75 22.8169 15.5669C23 15.3839 23 15.0893 23 14.5C23 13.9108 23 13.6162 22.8169 13.4331C22.6339 13.2501 22.3393 13.25 21.75 13.25ZM4.25002 8.25001C3.66077 8.25001 3.36618 8.25006 3.18312 8.43312C3.00006 8.61618 3.00002 8.91077 3.00002 9.50002C3.00002 10.0893 3.00008 10.3839 3.18312 10.5669C3.36618 10.75 3.66077 10.75 4.25002 10.75C4.83927 10.75 5.13385 10.75 5.31691 10.5669C5.49997 10.3839 5.50001 10.0893 5.50001 9.50002C5.50001 8.91077 5.49997 8.61618 5.31691 8.43312C5.13385 8.25008 4.83925 8.25001 4.25002 8.25001ZM9.25002 3.25002C8.66077 3.25002 8.36618 3.25006 8.18312 3.43312C8.00006 3.61618 8.00001 3.91077 8.00001 4.50002V9.50002C8.00001 10.0893 8.00008 10.3839 8.18312 10.5669C8.36618 10.75 8.66077 10.75 9.25002 10.75H16.75C17.3393 10.75 17.6339 10.75 17.8169 10.5669C18 10.3839 18 10.0893 18 9.50002V4.50002C18 3.91077 18 3.61618 17.8169 3.43312C17.6339 3.25008 17.3393 3.25002 16.75 3.25002H9.25002ZM21.75 8.25001C21.1608 8.25001 20.8662 8.25006 20.6831 8.43312C20.5001 8.61618 20.5 8.91077 20.5 9.50002C20.5 10.0893 20.5001 10.3839 20.6831 10.5669C20.8662 10.75 21.1608 10.75 21.75 10.75C22.3393 10.75 22.6339 10.75 22.8169 10.5669C23 10.3839 23 10.0893 23 9.50002C23 8.91077 23 8.61618 22.8169 8.43312C22.6339 8.25008 22.3393 8.25001 21.75 8.25001ZM4.25002 3.25002C3.66077 3.25002 3.36618 3.25006 3.18312 3.43312C3.00006 3.61618 3.00002 3.91077 3.00002 4.50002C3.00002 5.08925 3.00008 5.38385 3.18312 5.56691C3.36618 5.74997 3.66077 5.75001 4.25002 5.75001C4.83927 5.75001 5.13385 5.74997 5.31691 5.56691C5.49997 5.38385 5.50001 5.08927 5.50001 4.50002C5.50001 3.91077 5.49997 3.61618 5.31691 3.43312C5.13385 3.25008 4.83925 3.25002 4.25002 3.25002ZM21.75 3.25002C21.1608 3.25002 20.8662 3.25006 20.6831 3.43312C20.5001 3.61618 20.5 3.91077 20.5 4.50002C20.5 5.08925 20.5001 5.38385 20.6831 5.56691C20.8662 5.74997 21.1608 5.75001 21.75 5.75001C22.3393 5.75001 22.6339 5.74997 22.8169 5.56691C23 5.38385 23 5.08927 23 4.50002C23 3.91077 23 3.61618 22.8169 3.43312C22.6339 3.25008 22.3393 3.25002 21.75 3.25002Z"
  ></path>
</svg>