<svg
  fill="white"
  aria-hidden="true"
  role="img"
  xmlns="http://www.w3.org/2000/svg"
  data-testid="icon-search"
  height="16"
  viewBox="0 0 26 26"
>
  <path
    fill-rule="evenodd"
    clip-rule="evenodd"
    d="M10.8125 0.8125C5.11706 0.8125 0.5 5.42956 0.5 11.125C0.5 16.8204 5.11706 21.4375 10.8125 21.4375C12.8686 21.4375 14.7842 20.8358 16.3927 19.7988L21.7657 25.1718C22.62 26.0261 24.005 26.0261 24.8593 25.1718C25.7136 24.3175 25.7136 22.9325 24.8593 22.0782L19.4863 16.7052C20.5233 15.0967 21.125 13.1811 21.125 11.125C21.125 5.42956 16.5079 0.8125 10.8125 0.8125ZM3.625 11.125C3.625 7.15545 6.84295 3.9375 10.8125 3.9375C14.782 3.9375 18 7.15545 18 11.125C18 15.0945 14.782 18.3125 10.8125 18.3125C6.84295 18.3125 3.625 15.0945 3.625 11.125Z"
  ></path>
</svg>